<svg width="1038" height="599" viewBox="0 0 1038 599" fill="none" xmlns="http://www.w3.org/2000/svg">
<path d="M381.41 28.9599C199.845 -47.81 -9.74725 37.2127 -86.5171 218.778C-163.287 400.343 -78.2643 609.935 103.301 686.705L541.798 872.112C723.363 948.882 932.955 863.859 1009.73 682.294C1086.5 500.729 1001.47 291.136 819.907 214.366L381.41 28.9599ZM826.804 427.269C844.976 434.953 859.351 449.54 866.767 467.822C874.183 486.104 874.033 506.583 866.35 524.754C858.666 542.926 844.079 557.301 825.797 564.717C807.515 572.133 787.036 571.983 768.865 564.3C750.693 556.616 736.318 542.029 728.902 523.747C721.486 505.465 721.636 484.986 729.319 466.815C737.003 448.643 751.59 434.268 769.872 426.852C788.154 419.436 808.633 419.586 826.804 427.269ZM550.168 584.9C557.851 566.728 572.438 552.353 590.72 544.937C609.002 537.521 629.481 537.671 647.653 545.354C665.824 553.037 680.199 567.624 687.615 585.906C695.031 604.188 694.881 624.668 687.198 642.839C679.515 661.01 664.928 675.385 646.646 682.802C628.364 690.218 607.884 690.068 589.713 682.384C571.542 674.701 557.167 660.114 549.751 641.832C542.334 623.55 542.484 603.071 550.168 584.9ZM241.804 244.53C251.437 221.748 277.514 211.17 300.295 220.802C323.076 230.435 333.655 256.512 324.022 279.293L300.847 334.105L355.659 357.281C378.44 366.914 389.018 392.991 379.386 415.772C369.753 438.553 343.676 449.132 320.895 439.499L266.083 416.324L242.907 471.136C233.275 493.917 207.197 504.495 184.416 494.863C161.635 485.23 151.056 459.153 160.689 436.372L183.865 381.56L129.053 358.384C106.271 348.752 95.6929 322.674 105.325 299.893C114.958 277.112 141.035 266.533 163.816 276.166L218.628 299.342L241.804 244.53Z" fill="#111417"/>
</svg>
