<svg width="520" height="650" viewBox="0 0 520 650" fill="none" xmlns="http://www.w3.org/2000/svg">
<path d="M520.473 47.2085C526.225 67.2455 515.611 90.2933 493.065 112.91C465.816 140.131 421.147 166.688 366.798 186.385C362.104 185.564 357.442 184.854 352.622 184.43C303.491 178.652 242.157 184.932 179.597 202.889C170.358 205.541 161.405 208.352 152.516 211.385L151.1 211.069C119.991 203.853 98.7686 189.944 93.0171 169.907C78.8941 120.705 163.187 53.374 281.183 19.5042C399.179 -14.3656 506.35 -1.99352 520.473 47.2085ZM155.331 249.736C166.462 245.698 178.022 241.897 189.822 238.51C259.061 218.636 324.438 214.69 369.613 224.736C401.533 231.84 423.265 245.844 429.112 266.215C430.39 270.667 430.857 275.232 430.513 279.91C429.61 296.073 419.673 313.505 402.895 330.611C402.816 330.754 402.593 330.818 402.514 330.961C402.244 331.279 401.942 331.487 401.672 331.805C368.91 364.584 310.821 396.44 240.914 416.506C174.569 435.55 111.627 440.002 66.6447 431.466C64.2421 431.072 61.9188 430.534 59.5956 429.996C28.6299 422.859 7.40745 408.95 1.65597 388.913C-9.46355 350.175 40.4897 300.051 120.049 264.081C131.258 259.056 143.008 254.237 155.331 249.736ZM464.734 255.99C457.736 231.611 440.185 214.961 420.844 204.247C450.94 190.307 477.535 174.239 499.117 157.079C515.088 144.302 529.325 130.094 539.837 114.666L551.148 154.073C557.315 175.557 544.635 200.643 518.655 224.728C504.767 237.631 486.966 250.331 466.236 262.065C465.773 260.029 465.341 258.105 464.766 256.101L464.734 255.99ZM459.787 373.079C465.538 393.116 454.924 416.164 432.378 438.781C430.694 440.469 428.978 442.046 427.183 443.766C393.687 474.828 337.966 504.437 271.621 523.481C201.714 543.547 135.573 547.351 90.4134 536.939C59.3044 529.723 38.082 515.814 32.3305 495.777L21.0193 456.371C38.225 463.842 57.7179 468.368 78.0353 470.729C127.278 476.475 188.611 470.196 251.171 452.238C313.731 434.281 369.058 407.074 407.755 376.086C415.416 370.031 422.582 363.516 429.208 356.795C434.911 351.061 440.042 345.009 444.775 338.831C446.094 337.128 447.269 335.344 448.476 333.673L449.562 337.457L451.383 343.802L459.787 373.079ZM495.408 362.854L485.183 327.232L476.908 298.401C496.716 287.655 514.503 276.164 529.791 263.943C545.763 251.166 559.999 236.958 570.511 221.53L581.822 260.937C585.178 272.625 582.967 285.911 575.11 300.094C562.173 323.447 534.507 347.534 496.879 368.818C496.447 366.893 495.983 364.858 495.408 362.854ZM281.846 559.103C344.406 541.145 399.732 513.938 438.43 482.95C454.402 470.172 468.638 455.964 479.15 440.537L490.461 479.943C504.584 529.145 420.291 596.475 302.295 630.345C184.3 664.215 77.1282 651.843 63.0051 602.641L51.6938 563.235C68.8996 570.706 88.3924 575.232 108.71 577.593C157.952 583.339 219.286 577.06 281.846 559.103Z" fill="#1B2024"/>
</svg>
