<svg width="457" height="322" viewBox="0 0 457 322" fill="none" xmlns="http://www.w3.org/2000/svg">
<g clip-path="url(#clip0_251_40)">
<path d="M56.4637 -16.2672C25.291 3.71811 16.2275 45.2438 36.2288 76.4414L156.991 264.804C176.993 296.002 218.511 305.098 249.684 285.113L419.075 176.513L437.896 164.447C448.306 157.773 451.321 143.963 444.641 133.544C437.961 123.125 424.154 120.1 413.743 126.774L389.591 89.1018C400.001 82.4275 403.016 68.6177 396.336 58.1989L275.573 -130.164C268.894 -140.583 255.086 -143.608 244.676 -136.933L225.855 -124.867L56.4637 -16.2672ZM201.379 209.768L351.949 113.235L376.101 150.908L225.531 247.44C215.121 254.115 201.313 251.09 194.634 240.671C187.954 230.252 190.968 216.442 201.379 209.768ZM129.628 56.4293C126.307 51.2494 127.825 44.2962 133.001 40.9779L245.928 -31.4218C251.104 -34.7401 258.056 -33.2169 261.377 -28.0369C264.698 -22.857 263.18 -15.9038 258.004 -12.5855L145.077 59.8142C139.901 63.1325 132.949 61.6093 129.628 56.4293ZM157.153 78.6504L270.08 6.25076C275.256 2.93243 282.208 4.45561 285.529 9.63558C288.85 14.8155 287.333 21.7687 282.157 25.087L169.229 97.4867C164.053 100.805 157.102 99.2818 153.781 94.1019C150.46 88.9219 151.977 81.9688 157.153 78.6504Z" fill="#111417"/>
</g>
<defs>
<clipPath id="clip0_251_40">
<rect width="313" height="358" fill="white" transform="translate(0 19.9326) rotate(-32.6646)"/>
</clipPath>
</defs>
</svg>
