<svg width="478" height="465" viewBox="0 0 478 465" fill="none" xmlns="http://www.w3.org/2000/svg">
<g clip-path="url(#clip0_251_29)">
<path d="M383.024 131.736L263.067 57.9638C248.876 49.2363 230.121 53.8103 221.952 68.2937C220.311 71.201 218.671 74.1084 217.117 76.9952L160.566 42.2169C153.443 37.8367 144.185 40.0494 139.8 47.18C109.268 96.8263 105.974 142.386 115.664 180.636C125.177 218.333 146.941 247.752 164.627 266.757C175.016 277.948 177.154 293.672 170.692 304.181C163.801 315.386 149.092 318.901 137.899 312.018L123.922 303.422C114.443 297.593 102.071 300.55 96.2346 310.04C90.3986 319.53 93.3416 331.906 102.82 337.735L205.641 400.968C215.119 406.798 227.492 403.84 233.328 394.351C239.164 384.861 236.221 372.485 226.743 366.656L212.765 358.06C201.573 351.177 198.074 336.464 204.965 325.258C211.428 314.75 226.405 309.478 241.1 313.786C266.094 321.03 302.167 327.18 340.102 318.662C378.555 310.02 417.729 286.526 448.261 236.88C452.646 229.749 450.444 220.488 443.322 216.108L386.771 181.33C388.646 178.641 390.467 175.919 392.355 173.089C401.595 159.265 397.216 140.463 383.024 131.736ZM158.074 76.152L203.272 103.948C178.438 155.251 169.353 194.146 168.222 223.229C158.514 209.131 149.755 192.291 144.947 173.226C138.064 146.013 138.945 113.378 158.127 76.1849L158.074 76.152ZM333.504 289.186C314.321 293.497 295.34 293.277 278.379 290.974C303.823 276.843 334.436 251.188 369.016 205.879L414.214 233.675C389.623 267.541 360.895 283.051 333.558 289.219L333.504 289.186Z" fill="#1B2024"/>
</g>
<defs>
<clipPath id="clip0_251_29">
<rect width="362.124" height="322.258" fill="white" transform="translate(168.815) rotate(31.591)"/>
</clipPath>
</defs>
</svg>
