<svg width="27" height="30" viewBox="0 0 27 30" fill="none" xmlns="http://www.w3.org/2000/svg">
<path d="M15 4.6875C15 3.65039 14.1621 2.8125 13.125 2.8125C12.0879 2.8125 11.25 3.65039 11.25 4.6875V13.125H2.8125C1.77539 13.125 0.9375 13.9629 0.9375 15C0.9375 16.0371 1.77539 16.875 2.8125 16.875H11.25V25.3125C11.25 26.3496 12.0879 27.1875 13.125 27.1875C14.1621 27.1875 15 26.3496 15 25.3125V16.875H23.4375C24.4746 16.875 25.3125 16.0371 25.3125 15C25.3125 13.9629 24.4746 13.125 23.4375 13.125H15V4.6875Z" fill="#FFF9F9"/>
</svg>
